# xmcd CD database file
#
# Track frame offsets:
#	150
#	8700
#	21727
#	31220
#	40965
#	49837
#	61825
#	72927
#	85447
#	95450
#	106080
#	117090
#	128467
#	140917
#	153517
#	162217
#	174312
#	184759
#	198187
#	208102
#
# Disc length: 2949 seconds
#
# Revision: 1
# Processed by: cddbd v1.5.1PL0 Copyright (c) Steve Scherf et al.
# Submitted via: CDex 1.51
#
DISCID=0f0b8314
DTITLE=Kitty Wells and Johnny Wright - 20 Diamond Anniversary Gems
DYEAR=1900
DGENRE=Country
TTITLE0=Mama's Little Jewel
TTITLE1=After Dark
TTITLE2=What Do You Know About Heartaches
TTITLE3=I Can't Help Wondering
TTITLE4=Lonely Island Pearl
TTITLE5=Three Ways To Love You
TTITLE6=High Cost Of Living
TTITLE7=Touch And Go Heart
TTITLE8=Borrowed Diamonds
TTITLE9=Your Wild Life's Gonna Get You Down
TTITLE10=You Tried To Ruin My Name
TTITLE11=She's No Angel
TTITLE12=Shake My Mother's Hand For Me
TTITLE13=I'd Rather Stay Home
TTITLE14=You'll Never get A Better Chance Than This
TTITLE15=What About You?
TTITLE16=I Never Can Come Back To You
TTITLE17=I Don't Claim To Be An Idiot
TTITLE18=We'll Stick Together
TTITLE19=There Won't Be Any Tree This Christmas
EXTD=
EXTT0=
EXTT1=
EXTT2=
EXTT3=
EXTT4=
EXTT5=
EXTT6=
EXTT7=
EXTT8=
EXTT9=
EXTT10=
EXTT11=
EXTT12=
EXTT13=
EXTT14=
EXTT15=
EXTT16=
EXTT17=
EXTT18=
EXTT19=
PLAYORDER=
